<svg xmlns="http://www.w3.org/2000/svg" viewBox="0 0 112.638 69.8037">
	<defs>
		<linearGradient id="gradient1" x1="5" x2="5" y2="69.7412" gradientUnits="userSpaceOnUse">
			<stop offset="0" stop-color="#ffd22d" stop-opacity="1" />
			<stop offset="1" stop-color="#e2ba28" stop-opacity="1" />
		</linearGradient>
		<linearGradient id="gradient2" x1="5" x2="5" y2="69.7412" gradientUnits="userSpaceOnUse">
			<stop offset="0" stop-color="rgba(255,255,255,0.85)" stop-opacity="1" />
			<stop offset="1" stop-color="rgba(226,226,226,0.85)" stop-opacity="1" />
		</linearGradient>
	</defs>
	<path
		d="M0 57.9781C0 65.6418 4.13061 69.7412 11.8768 69.7412L100.574 69.7412C108.32 69.7412 112.451 65.6418 112.451 57.9781L112.451 44.7406C107.029 44.7406 102.596 40.3331 102.596 34.855C102.596 29.4081 107.029 24.975 112.451 25.0006L112.451 11.7631C112.451 4.13061 108.32 0 100.574 0L11.8768 0C4.13061 0 0 4.13061 0 11.7631L0 25.0006C5.44687 25.0006 9.85436 29.4393 9.85436 34.855C9.85436 40.3331 5.44687 44.7406 0 44.7406ZM82.9469 21.1087L82.9469 6.60685L88.0875 6.60685L88.0875 21.1087ZM82.9469 43.1056L82.9469 26.735L88.0875 26.735L88.0875 43.1056ZM82.9469 63.1625L82.9469 48.7318L88.0875 48.7318L88.0875 63.1625Z"
		fill="url(#gradient1)" />
	<path
		d="M73.0875 34.9343C73.0875 37.6437 69.5344 39.7193 65.1712 39.7193L56.5206 39.7193C55.5087 39.7193 55.1931 39.8587 54.5225 40.5606L40.3969 55.8606C39.88 56.4343 39.2269 56.7637 38.5056 56.7637L35.8906 56.7637C35.0306 56.7637 34.5056 55.955 34.9144 55.0806L41.9606 39.6568L31.9544 38.5343L28.2806 45.17C27.9144 45.7975 27.3437 46.1325 26.4831 46.1325L25.5456 46.1325C24.7681 46.1325 24.2006 45.5706 24.2006 44.7787L24.2006 25.0587C24.2006 24.2668 24.7681 23.7306 25.5456 23.7306L26.4831 23.7306C27.3437 23.7306 27.9144 24.04 28.2806 24.6931L31.9544 31.3087L41.9606 30.2062L34.9144 14.7568C34.5056 13.9081 35.0306 13.105 35.8906 13.105L38.5056 13.105C39.2269 13.105 39.88 13.4031 40.3969 13.9825L54.5225 29.2768C55.1931 30.01 55.5087 30.1437 56.5206 30.1437L65.1712 30.1437C69.5344 30.1437 73.0875 32.2193 73.0875 34.9343Z"
		fill="url(#gradient2)" />
</svg>